<svg width="61" height="60" viewBox="0 0 61 60" fill="none" xmlns="http://www.w3.org/2000/svg">
<path fill-rule="evenodd" clip-rule="evenodd" d="M30.1382 18.4424C23.7536 18.4424 18.5738 23.6191 18.5738 30C18.5738 36.3809 23.7536 41.5576 30.1382 41.5576C36.5228 41.5576 41.7026 36.3809 41.7026 30C41.7026 23.6191 36.5228 18.4424 30.1382 18.4424ZM30.1382 37.4971C25.9961 37.4971 22.6367 34.1396 22.6367 30C22.6367 25.8604 25.9961 22.5029 30.1382 22.5029C34.2803 22.5029 37.6397 25.8604 37.6397 30C37.6397 34.1396 34.2803 37.4971 30.1382 37.4971Z" fill="url(#paint0_linear_548_17634)"/>
<path d="M42.1599 20.6836C43.6461 20.6836 44.8597 19.4795 44.8597 17.9854C44.8597 16.5 43.6461 15.2871 42.1599 15.2871C40.6737 15.2871 39.4601 16.4912 39.4601 17.9854C39.4601 19.4707 40.6649 20.6836 42.1599 20.6836Z" fill="url(#paint1_linear_548_17634)"/>
<path fill-rule="evenodd" clip-rule="evenodd" d="M30.1382 7.5C24.0262 7.5 23.2611 7.52637 20.8603 7.63184C18.4683 7.7373 16.8237 8.12402 15.3991 8.67773C13.9129 9.25781 12.6553 10.0225 11.4065 11.2793C10.1489 12.5273 9.38384 13.7842 8.80342 15.2607C8.24939 16.6934 7.86244 18.3281 7.75691 20.7187C7.65138 23.127 7.625 23.8916 7.625 30C7.625 36.1084 7.65138 36.873 7.75691 39.2725C7.86244 41.6631 8.24939 43.3066 8.80342 44.7305C9.38384 46.2158 10.1489 47.4727 11.4065 48.7207C12.6553 49.9687 13.9129 50.7422 15.3903 51.3135C16.8237 51.8672 18.4595 52.2539 20.8515 52.3594C23.2523 52.4648 24.0174 52.4912 30.1294 52.4912C36.2414 52.4912 37.0065 52.4648 39.4073 52.3594C41.7993 52.2539 43.4438 51.8672 44.8685 51.3135C46.3459 50.7422 47.6035 49.9687 48.8523 48.7207C50.1011 47.4727 50.8749 46.2158 51.4466 44.7393C52.0006 43.3066 52.3876 41.6719 52.4931 39.2812C52.5986 36.8818 52.625 36.1172 52.625 30.0088C52.625 23.9004 52.5986 23.1357 52.4931 20.7363C52.3876 18.3457 52.0006 16.7021 51.4466 15.2783C50.8925 13.7842 50.1274 12.5273 48.8699 11.2793C47.6211 10.0312 46.3635 9.25781 44.8861 8.68652C43.4526 8.13281 41.8169 7.74609 39.4249 7.64062C37.0153 7.52637 36.2502 7.5 30.1382 7.5ZM30.1382 11.5518C36.1534 11.5518 36.8658 11.5781 39.2314 11.6836C41.43 11.7803 42.6172 12.1494 43.4087 12.457C44.4552 12.8613 45.2115 13.3535 45.9942 14.1357C46.7856 14.9268 47.2693 15.6738 47.6739 16.7197C47.9817 17.5107 48.351 18.7061 48.4477 20.8945C48.5533 23.2676 48.5797 23.9795 48.5797 29.9824C48.5797 35.9941 48.5533 36.7061 48.4477 39.0703C48.351 41.2676 47.9817 42.4541 47.6739 43.2451C47.2693 44.291 46.7768 45.0469 45.9942 45.8291C45.2027 46.6201 44.4552 47.1035 43.4087 47.5078C42.6172 47.8154 41.4212 48.1846 39.2314 48.2812C36.857 48.3867 36.1446 48.4131 30.1382 48.4131C24.1229 48.4131 23.4106 48.3867 21.045 48.2812C18.8464 48.1846 17.6592 47.8154 16.8677 47.5078C15.8212 47.1035 15.0649 46.6113 14.2822 45.8291C13.4907 45.0381 13.0071 44.291 12.6025 43.2451C12.2947 42.4541 11.9254 41.2588 11.8286 39.0703C11.7231 36.6973 11.6967 35.9854 11.6967 29.9824C11.6967 23.9707 11.7231 23.2588 11.8286 20.8945C11.9254 18.6973 12.2947 17.5107 12.6025 16.7197C13.0071 15.6738 13.4995 14.918 14.2822 14.1357C15.0737 13.3447 15.8212 12.8613 16.8677 12.457C17.6592 12.1494 18.8552 11.7803 21.045 11.6836C23.4106 11.5781 24.1229 11.5518 30.1382 11.5518Z" fill="url(#paint2_linear_548_17634)"/>
<defs>
<linearGradient id="paint0_linear_548_17634" x1="40.125" y1="7.5" x2="16.375" y2="52.5" gradientUnits="userSpaceOnUse">
<stop stop-color="#6E3BF1"/>
<stop offset="0.241314" stop-color="#C128BF"/>
<stop offset="0.475694" stop-color="#EA336B"/>
<stop offset="0.715281" stop-color="#EE8131"/>
<stop offset="0.913202" stop-color="#F8D849"/>
</linearGradient>
<linearGradient id="paint1_linear_548_17634" x1="40.125" y1="7.5" x2="16.375" y2="52.5" gradientUnits="userSpaceOnUse">
<stop stop-color="#6E3BF1"/>
<stop offset="0.241314" stop-color="#C128BF"/>
<stop offset="0.475694" stop-color="#EA336B"/>
<stop offset="0.715281" stop-color="#EE8131"/>
<stop offset="0.913202" stop-color="#F8D849"/>
</linearGradient>
<linearGradient id="paint2_linear_548_17634" x1="40.125" y1="7.5" x2="16.375" y2="52.5" gradientUnits="userSpaceOnUse">
<stop stop-color="#6E3BF1"/>
<stop offset="0.241314" stop-color="#C128BF"/>
<stop offset="0.475694" stop-color="#EA336B"/>
<stop offset="0.715281" stop-color="#EE8131"/>
<stop offset="0.913202" stop-color="#F8D849"/>
</linearGradient>
</defs>
</svg>
